HIERARCHY
ROOT Hips
{
 OFFSET 0.000000 0.000000 0.000000
 CHANNELS 6 Xposition Yposition Zposition Yrotation Xrotation Zrotation
 JOINT Chest
 {
  OFFSET 0.000000 9.585900 0.002600
  CHANNELS 3 Yrotation Xrotation Zrotation
  JOINT Chest2
  {
   OFFSET 0.000000 9.601200 -0.005300
   CHANNELS 3 Yrotation Xrotation Zrotation
   JOINT Chest3
   {
    OFFSET 0.000000 9.561800 0.000000
    CHANNELS 3 Yrotation Xrotation Zrotation
    JOINT Chest4
    {
     OFFSET 0.000000 9.552100 0.000000
     CHANNELS 3 Yrotation Xrotation Zrotation
     JOINT Neck
     {
      OFFSET 0.000000 14.453000 0.000000
      CHANNELS 3 Yrotation Xrotation Zrotation
      JOINT Head
      {
       OFFSET 0.000000 8.936500 -0.011300
       CHANNELS 3 Yrotation Xrotation Zrotation
       End Site
       {
        OFFSET 0.000000 17.073600 -0.006000
       }
      }
     }
     JOINT RightCollar
     {
      OFFSET -2.921100 9.558500 0.000000
      CHANNELS 3 Yrotation Xrotation Zrotation
      JOINT RightShoulder
      {
       OFFSET -13.519700 0.000000 0.000000
       CHANNELS 3 Yrotation Xrotation Zrotation
       JOINT RightElbow
       {
        OFFSET 0.000000 -29.696600 0.000000
        CHANNELS 3 Yrotation Xrotation Zrotation
        JOINT RightWrist
        {
         OFFSET 0.000000 -24.004700 0.000000
         CHANNELS 3 Yrotation Xrotation Zrotation
         End Site
         {
          OFFSET 0.000000 -17.728500 0.000000
         }
        }
       }
      }
     }
     JOINT LeftCollar
     {
      OFFSET 2.921100 9.558500 0.000000
      CHANNELS 3 Yrotation Xrotation Zrotation
      JOINT LeftShoulder
      {
       OFFSET 13.519700 0.000000 0.000000
       CHANNELS 3 Yrotation Xrotation Zrotation
       JOINT LeftElbow
       {
        OFFSET 0.000000 -29.696600 0.000000
        CHANNELS 3 Yrotation Xrotation Zrotation
        JOINT LeftWrist
        {
         OFFSET 0.000000 -24.004700 0.000000
         CHANNELS 3 Yrotation Xrotation Zrotation
         End Site
         {
          OFFSET 0.000000 -17.728500 0.000000
         }
        }
       }
      }
     }
    }
   }
  }
 }
 JOINT RightHip
 {
  OFFSET -7.771700 -0.012900 -0.001300
  CHANNELS 3 Yrotation Xrotation Zrotation
  JOINT RightKnee
  {
   OFFSET 0.000000 -40.869800 0.001200
   CHANNELS 3 Yrotation Xrotation Zrotation
   JOINT RightAnkle
   {
    OFFSET 0.000000 -39.717900 0.002100
    CHANNELS 3 Yrotation Xrotation Zrotation
    JOINT RightToe
    {
     OFFSET 0.000000 -4.965400 11.033500
     CHANNELS 3 Yrotation Xrotation Zrotation
     End Site
     {
      OFFSET 0.000000 -1.423100 5.872300
     }
    }
   }
  }
 }
 JOINT LeftHip
 {
  OFFSET 7.771700 -0.012900 -0.001300
  CHANNELS 3 Yrotation Xrotation Zrotation
  JOINT LeftKnee
  {
   OFFSET 0.000000 -40.869800 0.001200
   CHANNELS 3 Yrotation Xrotation Zrotation
   JOINT LeftAnkle
   {
    OFFSET 0.000000 -39.717900 0.002100
    CHANNELS 3 Yrotation Xrotation Zrotation
    JOINT LeftToe
    {
     OFFSET 0.000000 -4.965400 11.033500
     CHANNELS 3 Yrotation Xrotation Zrotation
     End Site
     {
      OFFSET 0.000000 -1.423100 5.872300
     }
    }
   }
  }
 }
}
MOTION
Frames: 14
Frame Time: 0.008333
0.000000 85.388000 0.000000 0.000000 -5.767877 0.000000 0.000000 11.653817 0.000000 0.000000 -5.885947 0.000000 0.000000 -0.000000 0.000000 0.000000 -0.000000 0.000000 0.000000 12.528835 0.000000 0.000000 0.711642 0.000000 0.000000 -0.000000 0.000000 0.000000 0.000000 -90.000000 0.000000 -2.309062 0.000000 0.000000 2.309062 0.000000 0.000000 -0.000000 0.000000 0.000000 -0.000000 90.000000 0.000000 -2.309062 0.000000 0.000000 2.309062 0.000000 0.000000 8.520406 0.000000 0.000000 1.905762 0.000000 -0.000000 -4.658285 0.000000 0.000000 -0.000000 0.000000 0.000000 8.520406 0.000000 0.000000 1.905762 0.000000 -0.000000 -4.658285 0.000000 0.000000 -0.000000 0.000000
-52.214208 62.067568 13.517918 176.085539 -49.949371 0.765372 3.456003 25.864863 1.289826 0.465813 4.146421 0.214706 0.752011 6.613649 0.359195 2.628716 21.016868 1.502524 1.171212 17.953795 2.137257 1.368413 -2.420620 3.317963 2.838836 5.265408 3.004664 -0.601809 -3.930225 -7.658116 -138.944329 -48.763111 166.211905 18.901534 -10.076496 -20.996779 -5.612554 1.741488 2.917199 -5.748417 1.499525 9.692803 158.355277 -57.006715 -173.240034 4.581767 -15.878888 22.045457 3.932574 -17.025937 -7.456249 1.718832 62.449468 -3.077039 1.345373 -10.590078 10.647370 0.038188 -0.152257 0.018376 0.074875 -5.659048 5.693565 121.327580 83.458594 129.911632 -4.695700 -16.606376 -10.836441 0.423606 -21.933646 -0.896040
-52.218149 62.068323 13.522195 176.123352 -49.955389 0.720597 3.508721 25.860363 1.260566 0.475410 4.148121 0.208063 0.767093 6.616137 0.348937 2.673175 21.017999 1.474597 1.116844 17.955694 2.226413 1.233775 -2.409377 3.490746 2.808844 5.322598 3.047519 -0.744879 -4.003495 -7.627035 -138.690369 -48.818848 166.055833 18.868493 -9.972761 -20.991500 -5.647659 1.719606 2.926575 -5.795788 1.462741 9.765073 158.106232 -57.094620 -173.081779 4.455200 -15.824961 21.889567 3.921764 -17.007294 -7.440946 1.688577 62.426025 -3.097070 1.358666 -10.575365 10.653606 0.027078 -0.157333 0.018337 0.072003 -5.669182 5.714210 121.384408 83.454716 129.983948 -4.709021 -16.590543 -10.833895 0.429077 -21.946828 -0.889173
-52.220035 62.070993 13.526103 176.205086 -49.976105 0.626197 3.507321 25.873359 1.272785 0.515825 4.145329 0.159926 0.782886 6.619099 0.338549 2.719825 21.019486 1.446482 1.024428 17.971101 2.245846 1.124816 -2.410669 3.732167 2.775380 5.377893 3.094823 -0.877996 -4.069002 -7.599434 -138.450695 -48.871069 165.910370 18.827632 -9.879269 -20.989174 -5.682009 1.699626 2.937471 -5.846953 1.425936 9.839011 157.919676 -57.185620 -172.966429 4.342037 -15.770842 21.752320 3.876977 -16.966427 -7.404692 1.676503 62.392267 -3.100757 1.358440 -10.553934 10.661285 0.029307 -0.166275 0.017381 0.054723 -5.672030 5.753591 121.474117 83.448769 130.104945 -4.720180 -16.566143 -10.845364 0.422713 -21.967970 -0.867881
-52.230398 62.071331 13.532497 176.233915 -49.977014 0.620372 3.570707 25.860124 1.188897 0.511579 4.149707 0.173918 0.798919 6.622158 0.328031 2.767120 21.020981 1.418174 0.952872 17.977418 2.309879 0.994356 -2.407063 3.936994 2.745966 5.429237 3.143588 -1.001916 -4.123832 -7.577731 -138.224931 -48.921201 165.775983 18.777838 -9.796709 -20.990194 -5.713256 1.683523 2.946385 -5.905397 1.388504 9.917518 157.788330 -57.277759 -172.886252 4.239025 -15.716671 21.632957 3.878000 -16.953333 -7.425569 1.697797 62.371984 -3.080198 1.342401 -10.539619 10.673524 0.042773 -0.165888 0.018684 0.072829 -5.693202 5.750106 121.395084 83.439580 130.036980 -4.764490 -16.534233 -10.820608 0.437368 -21.985015 -0.866367
-52.232974 62.071350 13.540284 176.269984 -49.975279 0.562678 3.650200 25.841386 1.154616 0.505842 4.154340 0.187341 0.814742 6.625277 0.316939 2.813325 21.022677 1.387973 0.892068 17.976736 2.396032 0.854207 -2.405613 4.115467 2.725768 5.474781 3.190540 -1.122174 -4.168292 -7.560867 -137.998406 -48.970959 165.643958 18.722750 -9.724646 -20.992266 -5.738025 1.670150 2.952315 -5.968982 1.352614 9.998471 157.699401 -57.367716 -172.832835 4.138051 -15.659147 21.534266 3.858079 -16.941652 -7.393271 1.696642 62.337885 -3.075748 1.336403 -10.511741 10.679210 0.046427 -0.167854 0.019393 0.082773 -5.717105 5.791115 121.503622 83.440522 130.174135 -4.785055 -16.516025 -10.826421 0.451350 -22.000724 -0.849462
-52.242498 62.075589 13.544629 176.322988 -50.005646 0.536955 3.678091 25.862184 1.085902 0.515575 4.156734 0.179970 0.830093 6.628646 0.305380 2.857666 21.024776 1.356032 0.828796 17.972062 2.477848 0.710892 -2.411417 4.286791 2.711604 5.514224 3.234365 -1.241858 -4.205423 -7.547144 -137.761908 -49.023608 165.508919 18.665676 -9.660664 -20.993996 -5.757199 1.656988 2.953594 -6.036443 1.319240 10.077936 157.658988 -57.457997 -172.809859 4.039830 -15.594232 21.448907 3.834770 -16.893831 -7.408184 1.688495 62.311478 -3.090027 1.346186 -10.487087 10.699103 0.039073 -0.174765 0.015322 0.078516 -5.704714 5.791443 121.482995 83.439875 130.164608 -4.831781 -16.492524 -10.841071 0.454491 -22.016076 -0.805461
-52.248857 62.076090 13.552455 176.340192 -50.006747 0.521346 3.737670 25.854969 1.033799 0.525300 4.159421 0.172437 0.845297 6.632531 0.293629 2.901339 21.027548 1.323284 0.762930 17.963859 2.556738 0.563609 -2.423413 4.453675 2.700086 5.548271 3.278405 -1.357171 -4.237414 -7.537590 -137.519264 -49.079154 165.376473 18.603880 -9.598177 -20.997102 -5.774620 1.642791 2.953414 -6.110227 1.288755 10.151356 157.670492 -57.553344 -172.815589 3.945562 -15.519342 21.358454 3.829782 -16.889231 -7.404582 1.657926 62.292129 -3.120622 1.350472 -10.436184 10.722363 0.044702 -0.198210 0.004626 0.095703 -5.720724 5.811664 121.490506 83.442155 130.178757 -4.858773 -16.477837 -10.833373 0.466313 -22.019968 -0.792264
-52.251315 62.077841 13.559356 176.377317 -50.018198 0.470599 3.793981 25.857632 1.002662 0.535034 4.162460 0.164762 0.860496 6.637089 0.281718 2.944648 21.031097 1.289838 0.713489 17.952106 2.664066 0.399348 -2.436540 4.593764 2.693169 5.579066 3.322256 -1.464015 -4.266744 -7.532250 -137.273570 -49.138654 165.246302 18.537163 -9.531407 -20.995826 -5.794077 1.630191 2.954583 -6.181624 1.260494 10.217544 157.715926 -57.652742 -172.839893 3.856928 -15.434164 21.246423 3.802994 -16.866423 -7.380726 1.641103 62.260671 -3.132014 1.354264 -10.393880 10.733075 0.045968 -0.208606 -0.000202 0.098887 -5.725580 5.856679 121.528572 83.442779 130.223432 -4.881479 -16.472871 -10.825788 0.473109 -22.017859 -0.780461
-52.254459 62.080077 13.565520 176.423094 -50.034130 0.420291 3.839844 25.865453 0.963807 0.544408 4.165188 0.156952 0.875260 6.641159 0.269581 2.986438 21.033973 1.255537 0.645988 17.943658 2.740654 0.249814 -2.448324 4.757035 2.693300 5.612951 3.362166 -1.561236 -4.299653 -7.530149 -137.019528 -49.209098 165.109537 18.469866 -9.460951 -20.981089 -5.814091 1.623671 2.955391 -6.233577 1.232625 10.280080 157.754251 -57.749688 -172.864219 3.772093 -15.340438 21.108062 3.771437 -16.838273 -7.363327 1.622997 62.230836 -3.147277 1.357898 -10.352052 10.747573 0.049885 -0.222745 -0.007503 0.097685 -5.725669 5.896233 121.605536 83.451642 130.305107 -4.900369 -16.470484 -10.812935 0.471993 -22.013028 -0.766628
-52.258346 62.082499 13.571038 176.450908 -50.052338 0.390529 3.892708 25.876715 0.919186 0.522295 4.168388 0.194550 0.914117 6.643257 0.208584 3.024838 21.035318 1.219201 0.560789 17.939485 2.786993 0.115473 -2.456893 4.944273 2.699137 5.653157 3.397018 -1.644217 -4.339784 -7.531318 -136.751991 -49.293594 164.959167 18.406353 -9.389339 -20.951230 -5.829297 1.622757 2.953955 -6.268093 1.207285 10.339032 157.774645 -57.840200 -172.886669 3.688113 -15.244557 20.954498 3.757638 -16.808968 -7.352615 1.593937 62.204439 -3.173337 1.364911 -10.310364 10.769413 0.054036 -0.245197 -0.021215 0.100981 -5.719814 5.926006 121.626934 83.456677 130.323132 -4.917970 -16.465884 -10.788391 0.479605 -22.008188 -0.769967
-52.263611 62.084831 13.575979 176.518251 -50.071368 0.340266 3.913165 25.889649 0.863994 0.546367 4.168991 0.163606 0.913550 6.644974 0.219043 3.059779 21.035623 1.180491 0.493805 17.934222 2.863017 -0.032879 -2.462177 5.106324 2.711041 5.696276 3.429214 -1.711421 -4.384752 -7.537263 -136.475225 -49.391827 164.795805 18.352073 -9.316669 -20.909820 -5.837400 1.625242 2.948606 -6.297786 1.186518 10.393072 157.804823 -57.925539 -172.927207 3.606878 -15.158416 20.805304 3.720715 -16.775325 -7.354942 1.554452 62.178461 -3.208630 1.385450 -10.274630 10.795610 0.042540 -0.253741 -0.033746 0.084688 -5.718203 5.954688 121.757954 83.471116 130.442294 -4.918454 -16.465496 -10.766271 0.465994 -21.996021 -0.758419
-52.265166 62.085734 13.581677 176.557117 -50.080948 0.290021 3.929282 25.894729 0.859322 0.591479 4.166890 0.089304 0.913751 6.646568 0.229868 3.093283 21.035339 1.140355 0.428417 17.928426 2.938598 -0.178217 -2.468218 5.267049 2.728533 5.737732 3.462977 -1.768517 -4.430516 -7.548989 -136.199120 -49.502815 164.629473 18.307376 -9.240869 -20.861070 -5.837904 1.631280 2.941227 -6.329899 1.167646 10.442209 157.848360 -58.005707 -172.983616 3.526194 -15.088286 20.673520 3.701733 -16.754636 -7.339894 1.537920 62.150963 -3.210308 1.401352 -10.234535 10.817489 0.042991 -0.260566 -0.045762 0.077373 -5.721094 5.992579 121.876822 83.482767 130.568602 -4.925064 -16.470901 -10.776160 0.467613 -21.987431 -0.734791
-52.273816 62.087266 13.585838 176.580729 -50.096978 0.294250 3.973910 25.904570 0.760975 0.562311 4.170862 0.148423 0.944794 6.646299 0.166069 3.125976 21.035054 1.099118 0.364946 17.921125 3.013342 -0.319723 -2.476979 5.425697 2.748594 5.775205 3.499732 -1.815235 -4.473740 -7.565567 -135.938292 -49.625972 164.470339 18.270927 -9.164181 -20.810428 -5.831338 1.642333 2.937294 -6.368905 1.145211 10.483107 157.896111 -58.084019 -173.042224 3.445443 -15.033945 20.563325 3.694574 -16.732491 -7.370019 1.547233 62.138920 -3.203279 1.410335 -10.201251 10.845180 0.046144 -0.267667 -0.054365 0.075528 -5.715515 5.994694 121.903527 83.483458 130.557632 -4.906360 -16.473991 -10.736640 0.424169 -21.967527 -0.739768
